{"title":"Law Abiding Citizen 2009 DVD9rip English Klam","uid":6603792,"size":1406261628,"categoryP":"video","categoryS":"movies","magnet":"?xt=urn:btih:c1edb9d8ccc3dc38ecaeb653c008b365a27758b6&amp;dn=Law+Abiding+Citizen+2009+DVD9rip+English+Klam&amp;tr=udp%3A%2F%2Ftracker.openbittorrent.com%3A80&amp;tr=udp%3A%2F%2Fopen.demonii.com%3A1337&amp;tr=udp%3A%2F%2Ftracker.coppersurfer.tk%3A6969&amp;tr=udp%3A%2F%2Fexodus.desync.com%3A6969","seeders":0,"leechers":1,"uploader":"Klambake","files":-1,"time":1313322201,"description":"With: Gerard Butler, Jamie Foxx en Leslie Bibb\n\nEen aanklager, Nick Rice (Foxx), komt terecht in een wraakcomplot van iemand die getraumatiseerd is door het rechtssysteem. Hij moet het opnemen tegen een crimineel meesterbrein, Clyde Shelton (Butler), die vanuit de gevangenis een hele stad onder controle heeft.\n\nA frustrated man decides to take justice into his own hands after a plea bargain sets one of his family's killers free. He targets not only the killer but also the district attorney and others involved in the deal. \n\n------------------ Dutch Friends ------------------\nYou can find my Friends at: http://www.Film-Test.nl \n------ They got my dutchs subs ---- and more ------\n\nGeneral:\n\nComplete name                    : Law Abiding Citizen\\Law Abiding Citizen.avi\nFormat                           : AVI\nFormat/Info                      : Audio Video Interleave\nFile size                        : 1.31 GiB\nDuration                         : 1h 44mn\nOverall bit rate                 : 1 802 Kbps\n\nVideo:\n\nFormat                           : MPEG-4 Visual\nFormat profile                   : Simple@L3\nFormat settings, BVOP            : No\nFormat settings, QPel            : No\nFormat settings, GMC             : No warppoints\nFormat settings, Matrix          : Default (H.263)\nCodec ID                         : XVID\nCodec ID/Hint                    : XviD\nDuration                         : 1h 44mn\nBit rate                         : 1 407 Kbps\nWidth                            : 720 pixels\nHeight                           : 304 pixels\nDisplay aspect ratio             : 2.35:1\nFrame rate                       : 25.000 fps\nColor space                      : YUV\nChroma subsampling               : 4:2:0\nBit depth                        : 8 bits\nScan type                        : Progressive\nBits/(Pixel*Frame)               : 0.257\nStream size                      : 1.02 GiB (78%)\nWriting library                  : XviD 1.1.2 (UTC 2006-11-01)\n\nAudio:\n\nFormat                           : AC-3\nFormat/Info                      : Audio Coding 3\nMode extension                   : CM (complete main)\nCodec ID                         : 2000\nDuration                         : 1h 44mn\nBit rate mode                    : Constant\nBit rate                         : 384 Kbps\nChannel(s)                       : 6 channels\nChannel positions                : Front: L C R, Side: L R, LFE\nSampling rate                    : 48.0 KHz\nBit depth                        : 16 bits\nStream size                      : 286 MiB (21%)\nAlignment                        : Aligned on interleaves\nInterleave, duration             : 32 ms (0.80 video frame)\nInterleave, preload duration     : 128 ms\n\n","torrent":{"xt":"urn:btih:c1edb9d8ccc3dc38ecaeb653c008b365a27758b6","amp;dn":"Law+Abiding+Citizen+2009+DVD9rip+English+Klam","amp;tr":["udp%3A%2F%2Ftracker.openbittorrent.com%3A80","udp%3A%2F%2Fopen.demonii.com%3A1337","udp%3A%2F%2Ftracker.coppersurfer.tk%3A6969","udp%3A%2F%2Fexodus.desync.com%3A6969"],"infoHash":"c1edb9d8ccc3dc38ecaeb653c008b365a27758b6","infoHashBuffer":{"type":"Buffer","data":[193,237,185,216,204,195,220,56,236,174,182,83,192,8,179,101,162,119,88,182]},"announce":[],"urlList":[]}}